<svg xmlns="http://www.w3.org/2000/svg" viewBox="0 0 900 600" width="900" height="600" role="img" aria-labelledby="title desc">
  <title>南境国旗草案：镜玉龙胆旗</title>
  <desc id="desc">蓝白横旗，中置正六边形镜玉徽，徽内为六瓣龙胆花。</desc>

  <defs>
    <style>
      .blue { fill: #174A8B; }
      .white { fill: #F8FAFC; }
      .line-blue { stroke: #174A8B; }
      .pale-blue { fill: #DDEBFA; }
      .flower-blue { fill: #2F66B1; }
      .flower-light { fill: #EEF6FF; }
      .crystal-light { fill: #E9F3FF; }
      .crystal-mid { fill: #BFD7F2; }
      .crystal-dark { fill: #174A8B; }
      .stroke-round { stroke-linecap: round; stroke-linejoin: round; }
    </style>

    
    <path id="petal" d="M 0,-18
      C 31,-70 31,-118 0,-154
      C -31,-118 -31,-70 0,-18 Z"></path>

    
    <polygon id="hex" points="450,168 564.32,234 564.32,366 450,432 335.68,366 335.68,234"></polygon>
  </defs>

  
  <rect class="white" x="0" y="0" width="900" height="600"></rect>

  
  <rect class="blue" x="0" y="0" width="900" height="120"></rect>
  <rect class="blue" x="0" y="480" width="900" height="120"></rect>

  
  <rect class="white" x="0" y="120" width="900" height="14"></rect>
  <rect class="blue" x="0" y="134" width="900" height="6"></rect>
  <rect class="blue" x="0" y="460" width="900" height="6"></rect>
  <rect class="white" x="0" y="466" width="900" height="14"></rect>

  
  <g id="mirror-jade-gentian-emblem">
    
    

    
    <path class="crystal-light" d="M450,168 L486,230 L450,246 L414,230 Z" opacity="0.75"></path>
    <path class="crystal-mid" d="M564.32,234 L500,252 L486,230 Z" opacity="0.65"></path>
    <path class="crystal-mid" d="M564.32,366 L500,348 L486,370 Z" opacity="0.55"></path>
    <path class="crystal-light" d="M450,432 L486,370 L450,354 L414,370 Z" opacity="0.75"></path>
    <path class="crystal-mid" d="M335.68,366 L400,348 L414,370 Z" opacity="0.55"></path>
    <path class="crystal-mid" d="M335.68,234 L400,252 L414,230 Z" opacity="0.65"></path>

    
    <line x1="450" y1="168" x2="450" y2="246" stroke="#174A8B" stroke-width="2" opacity="0.55"></line>
    <line x1="564.32" y1="234" x2="500" y2="252" stroke="#174A8B" stroke-width="2" opacity="0.45"></line>
    <line x1="564.32" y1="366" x2="500" y2="348" stroke="#174A8B" stroke-width="2" opacity="0.45"></line>
    <line x1="450" y1="432" x2="450" y2="354" stroke="#174A8B" stroke-width="2" opacity="0.55"></line>
    <line x1="335.68" y1="366" x2="400" y2="348" stroke="#174A8B" stroke-width="2" opacity="0.45"></line>
    <line x1="335.68" y1="234" x2="400" y2="252" stroke="#174A8B" stroke-width="2" opacity="0.45"></line>

    
    <g transform="translate(450 300)">
      <g fill="#EEF6FF" stroke="#174A8B" stroke-width="4" class="stroke-round">
        
        
        
        
        
        
      </g>

      
      <g fill="#2F66B1" opacity="0.88">
        <path d="M0,-33 C13,-70 13,-104 0,-132 C-13,-104 -13,-70 0,-33 Z"></path>
        <path d="M0,-33 C13,-70 13,-104 0,-132 C-13,-104 -13,-70 0,-33 Z" transform="rotate(60)"></path>
        <path d="M0,-33 C13,-70 13,-104 0,-132 C-13,-104 -13,-70 0,-33 Z" transform="rotate(120)"></path>
        <path d="M0,-33 C13,-70 13,-104 0,-132 C-13,-104 -13,-70 0,-33 Z" transform="rotate(180)"></path>
        <path d="M0,-33 C13,-70 13,-104 0,-132 C-13,-104 -13,-70 0,-33 Z" transform="rotate(240)"></path>
        <path d="M0,-33 C13,-70 13,-104 0,-132 C-13,-104 -13,-70 0,-33 Z" transform="rotate(300)"></path>
      </g>

      
      <polygon points="0,-26 22,-13 22,13 0,26 -22,13 -22,-13" fill="#DDEBFA" stroke="#174A8B" stroke-width="4" class="stroke-round"></polygon>
      <polygon points="0,-15 13,-8 13,8 0,15 -13,8 -13,-8" fill="#174A8B"></polygon>

      
      <g stroke="#174A8B" stroke-width="3" class="stroke-round">
        <line x1="0" y1="-28" x2="0" y2="-52"></line>
        <line x1="24" y1="-14" x2="45" y2="-26"></line>
        <line x1="24" y1="14" x2="45" y2="26"></line>
        <line x1="0" y1="28" x2="0" y2="52"></line>
        <line x1="-24" y1="14" x2="-45" y2="26"></line>
        <line x1="-24" y1="-14" x2="-45" y2="-26"></line>
      </g>
      <g fill="#F8FAFC" stroke="#174A8B" stroke-width="2">
        <circle cx="0" cy="-56" r="5"></circle>
        <circle cx="49" cy="-28" r="5"></circle>
        <circle cx="49" cy="28" r="5"></circle>
        <circle cx="0" cy="56" r="5"></circle>
        <circle cx="-49" cy="28" r="5"></circle>
        <circle cx="-49" cy="-28" r="5"></circle>
      </g>
    </g>
  </g>
</svg>
